<?xml version="1.0" encoding="UTF-8"?>
<svg id="Layer_1" xmlns="http://www.w3.org/2000/svg" version="1.1" viewBox="0 0 367 378.04">
  <!-- Generator: Adobe Illustrator 29.8.4, SVG Export Plug-In . SVG Version: 2.1.1 Build 6)  -->
  <defs>
    <style>
      .st0, .st1, .st2, .st3, .st4, .st5 {
        stroke: #fff;
      }

      .st0, .st2, .st3, .st5 {
        fill: none;
      }

      .st0, .st4, .st5 {
        stroke-miterlimit: 10;
      }

      .st1, .st2, .st3 {
        stroke-linejoin: round;
      }

      .st1, .st2, .st3, .st5 {
        stroke-linecap: round;
      }

      .st1, .st3 {
        stroke-width: 5px;
      }

      .st2, .st5 {
        stroke-width: 2px;
      }
    </style>
  </defs>
  <path d="M300.34,294.3s-19.71-29.2-17.78-33.99c0,0-7.34-3.09-10.07-8.44l-5.72,3.97-7.46,3.54-8.01,2.2-5.43.32-5.9-1.04-4.24-3.91-3.78-15.95-4.88-14.44-.26-17.77-2.83-13.13-11.71,10.69-8.32-6.71-2.32-6.03-3.13-4.59-5.57-8.41.19-1.72h-12.48l-8.47-4.8-2.17-5.88-7.8.22-4.57-5.32-1.57-8.66-16.42,5.73-23.14-19.23.2-22.82-25,17.57-20.99,21.74-11.83,18.78-2.6,10.42,8.88,11.69,15.03,5.99,31.14,4.67c.37.93.07,1.63-1.04,2.05l-10.3,20.42-2.31,15.24,3.39,4.92,6.93,2.68,13.14,4.13,13.41,3.91,21.46,5.54,16.28,8.68,11.89,10.15,10.59,15.82,5.3,11.27,4.79,10.18"/>
  <polygon points="157.38 157.02 174.15 135.26 174.15 123.44 208.39 157.02 234 177.53 276.06 202.67 301.42 224.1 306.1 231.73 305.48 234.72 302.96 235.35 301.59 235.35 305.82 245.76 304.74 253.44 295.35 257.08 292.49 257.26 292.28 258.73 289.65 260.29 285.52 261.06 280.93 260.32 274.13 254.12 272.07 251.44 266.31 256.67 251.29 261.59 240.8 261.59 235.87 258.45 234.09 246.98 228.56 232.61 226.86 215.18 227.37 208.63 224.82 195.71 220.47 197.92 213.89 205.43 211.13 205.57 206.6 201.79 201.95 194.35 198.15 188.48 194.51 182.21 193.28 178.87 181.38 178.89 173.13 175.22 170.66 168.59 163.82 168.38 158.34 163.94 157.38 157.02"/>
  <path d="M143.7,90.36c14.82-32.09,148.45-79.65,166.95,44.63,1.19,7.98-10.81,10.16-14.54,7-2.98-2.53-14.08,16.06-13.62,23.28,0,0-4.83-2.23-3.89,1.63"/>
  <path class="st0" d="M203.44,152.56c-13.72-13.03-24.43-24.47-27.71-28.02"/>
  <path class="st0" d="M274.6,201.7c-29.69-18.55-43.6-23.85-71.17-49.14"/>
  <path class="st0" d="M277.68,166.01c.82.53,7.28,37.76-3.07,35.69"/>
  <path d="M157.94,87.7c62.83,7.83,109.74,59.89,119.74,78.31,0,0,10.15,34.77-2.16,36.66l-37.78-22.73-25.43-19.22-19.62-18.62-18.24-19.45-8.33-10.31-8.44-7.24-19.66-3.49-11.07,6.74s-4.16-5.51,1.28-10,19.76-10.9,24.57-9.99"/>
  <path d="M111.33,209s.97,1.67-1.64,2.14l-7.87,17.75-3.7,11.67.81,8.54,4.86,3.08,12.19-1.73,26.13-12.94,19.17-11.19,7.65-4.64s-1.22-1.05,0-2.13-17.16-4.47-17.16-4.47l-28.18-4.7-12.27-1.38h.01Z"/>
  <path class="st4" d="M159.99,217.54c-49.63,26.03-57.21,25-39.28-7.15,13.52-.17,26.38,3.07,39.28,7.15Z"/>
  <path class="st3" d="M102.59,112.83c3.66-2.31,11.64-5.85,19.63.42"/>
  <path class="st1" d="M69.83,152.67c-7-4.46-11.52-12.47-11.52-21.68,0-5.78,1.87-11.11,5.02-15.39,4.53-6.16,11.72-10.14,19.81-10.14,9.89,0,18.44,5.95,22.43,14.56"/>
  <path class="st5" d="M168.41,222.05c-22.39,11.05-99.74,68.04-58.84-10.68"/>
  <path class="st5" d="M120.45,211.06c-17.92,32.15-10.09,32.51,39.54,6.48"/>
  <path class="st5" d="M101.82,251.64c8.93,4.15,35.6,11.81,41.88,13.02,17.15,3.31,42.33,11.46,60.82,59.18"/>
  <path class="st2" d="M114.3,119.99c-23.16,12.3-64.52,54.8-56.66,69.14,14.53,26.52,67.52,13.67,113.45,31.23"/>
  <path class="st1" d="M173.13,130.32c0,15.64-12.68,28.32-28.32,28.32s-28.32-12.68-28.32-28.32c0-6.41,2.13-12.33,5.72-17.07,5.17-6.83,13.37-11.25,22.59-11.25,15.64,0,28.32,12.68,28.32,28.32h.01Z"/>
  <path class="st2" d="M204.35,153.44c-13.72-13.03-24.43-24.47-27.71-28.02-.99-1.07-2.07-2.04-3.29-2.83"/>
  <path class="st2" d="M278.59,166.89c-10-18.42-56.91-70.48-119.74-78.31-10.56-1.32-21,3.27-30.61,9.76-2.91,1.97-3.52,6.05-1.79,9.11l.51.9"/>
  <path class="st2" d="M282.56,261.06c5.69,15.1,11.96,28.33,17.78,33.24"/>
  <path class="st2" d="M282.56,261.06"/>
  <path class="st2" d="M263.45,198.6"/>
  <path class="st2" d="M146.77,90.09c-1.49,4.2-2.29,7.79-2.6,10.93"/>
  <path class="st2" d="M152.81,89.44c-.81,4.18-1.42,8.64-1.94,13.22"/>
  <path class="st2" d="M156.95,88.39c.42,6.1-.19,10.69-1.3,14.55"/>
  <path class="st2" d="M165.12,89.51c.61,2.77.46,12.02-.2,20.88"/>
  <path class="st2" d="M169.44,113.24s3.47-16.22,1.35-19.27"/>
  <path class="st2" d="M175.31,124.11s1.15-27.33-.34-28.06"/>
  <path class="st2" d="M181.98,96.05c2.5.65,1.91,21.8,2.18,37.33"/>
  <path class="st2" d="M190.36,101.52c5.58,5.43,1.75,21.74,4.03,42.25"/>
  <path class="st2" d="M131.66,105.24s-1.94-3.38,1.32-9.69"/>
  <path class="st2" d="M230.12,117.53c-4.06,12.8-7.23,33.92-10.06,46.1"/>
  <path class="st2" d="M210.58,158.73c1.23-3.32,5.23-27.83,5.46-37.85"/>
  <path class="st2" d="M204.35,153.44c-3.24-18.9,1.95-45.15-2.31-48.08"/>
  <path class="st2" d="M143.7,90.36c14.82-32.09,148.45-79.65,166.95,44.63,1.19,7.98-10.81,10.16-14.54,7-2.98-2.53-14.08,16.06-13.62,23.28"/>
  <path class="st2" d="M237.01,122.59s-13.44,43.06-11.92,44.3"/>
  <path class="st2" d="M242.92,127.3c-6.46,4.16-13.47,38.24-14.4,46.05"/>
  <path class="st2" d="M274.8,202.14s2.25-5.48,2.52-24.13"/>
  <path class="st2" d="M265.31,196.33s-.58-10.98,7.97-37.6"/>
  <path class="st2" d="M259.96,193.14s3.44-24.31,8.4-40.67"/>
  <path class="st2" d="M252.56,188.75c2.76-6.28,7.92-35.16,10.89-41.92"/>
  <path class="st2" d="M245.27,184.37c.33-3.25,7.3-29.46,11.9-44.12"/>
  <path class="st2" d="M239.25,180.61c-.11-3.63,9.09-38.42,10.84-46.61"/>
  <path class="st2" d="M240.26,147.59c.59-1.87,1.17-3.7,1.71-5.42"/>
  <path class="st2" d="M231.79,175.66c.51-2.63,3.52-12.37,6.62-22.21"/>
  <path class="st2" d="M157.52,155.64s-2.41,15.18,13.28,13.21c0,0-.31,12.26,22.86,10.22-.28,1.86,11.61,23.26,18.09,26.76.88.32,1.86.04,2.44-.69,1.71-2.12,6.5-8.69,10.51-9.03"/>
  <path class="st2" d="M224.82,196.3c.24,3.87.89,8.63,2.54,12.36,0,0-2.3,19.71,4.6,32.35,1.67,2.52,2.65,7.95,3.41,14.35.23,6.11,13.16,10.81,31.02.63,0,0,3.65-1.23,5.67-4.55"/>
  <path class="st2" d="M275.52,202.59c-29.69-18.55-43.6-23.85-71.17-49.14"/>
  <path class="st2" d="M275.52,202.59c10.36,2.07,3.89-35.16,3.07-35.69"/>
  <path class="st2" d="M265.3,227.76c4.31,36.77,22.32,33,22.32,33,1.38-.58,5.2-.29,4.86-3.5,0,0,23.57.59,8.48-22.22,9.41,2.3,8.51-7.66-25.46-32.46"/>
</svg>